
<svg width="100%" height="100%" viewBox="0 0 202 204" version="1.1" xmlns="http://www.w3.org/2000/svg" xmlns:xlink="http://www.w3.org/1999/xlink" xml:space="preserve" xmlns:serif="http://www.serif.com/" style="fill-rule:evenodd;clip-rule:evenodd;stroke-linejoin:round;stroke-miterlimit:2;">
    <g transform="matrix(1,0,0,1,-1023.76,-1736.7)">
        <g id="Artboard2" transform="matrix(0.144635,0,0,0.175452,936.559,1519.89)">
            <rect x="602.934" y="1235.74" width="1390.07" height="1161.56" style="fill:none;"/>
            <g transform="matrix(6.24098,0,0,5.1448,-5219.67,-7303.39)">
                <path d="M1047.16,1669.14C1104.29,1669.14 1150.67,1715.52 1150.67,1772.64C1150.67,1829.77 1104.29,1876.15 1047.16,1876.15C990.037,1876.15 943.658,1829.77 943.658,1772.64C943.658,1715.52 990.037,1669.14 1047.16,1669.14ZM1047.16,1678.02C1099.38,1678.02 1141.78,1720.42 1141.78,1772.64C1141.78,1824.87 1099.38,1867.27 1047.16,1867.27C994.939,1867.27 952.541,1824.87 952.541,1772.64C952.541,1720.42 994.939,1678.02 1047.16,1678.02Z" style="fill:white;"/>
            </g>
            <g transform="matrix(6.91395,0,0,5.69957,-6484.7,-8669.43)">
                <path d="M1127.6,1829.16L1171.02,1780.13C1172.25,1778.74 1174.38,1778.61 1175.78,1779.85L1180.83,1784.32C1182.23,1785.56 1182.36,1787.69 1181.12,1789.09L1136.61,1839.35L1181.83,1890.48C1183.06,1891.87 1182.93,1894.01 1181.53,1895.24L1176.48,1899.71C1175.08,1900.95 1172.95,1900.82 1171.71,1899.42L1127.59,1849.53L1084.69,1897.98C1083.46,1899.37 1081.32,1899.5 1079.93,1898.27L1074.88,1893.79C1073.48,1892.56 1073.35,1890.42 1074.59,1889.03L1118.58,1839.35L1075.35,1790.47C1074.12,1789.08 1074.25,1786.94 1075.65,1785.71L1080.7,1781.23C1082.1,1780 1084.23,1780.13 1085.47,1781.53L1127.6,1829.16Z" style="fill:white;"/>
            </g>
        </g>
    </g>
</svg>
